<svg fill="currentColor" viewBox="0 0 24 24" id="id-card-2" data-name="Flat Color" xmlns="http://www.w3.org/2000/svg" class="icon flat-color"><g id="SVGRepo_bgCarrier" stroke-width="0"></g><g id="SVGRepo_tracerCarrier" stroke-linecap="round" stroke-linejoin="round"></g><g id="SVGRepo_iconCarrier"><rect id="secondary" x="9" y="2" width="6" height="4" rx="1" style="fill: currentColor;"></rect><rect opacity="0.4" id="primary" x="4" y="4" width="16" height="18" rx="2" style="fill: currentColor;"></rect><path id="secondary-2" data-name="secondary" d="M14.4,12.8A3,3,0,0,0,15,11a3,3,0,0,0-6,0,3,3,0,0,0,.6,1.8A4,4,0,0,0,8,16v1a1,1,0,0,0,1,1h6a1,1,0,0,0,1-1V16A4,4,0,0,0,14.4,12.8Z" style="fill: currentColor;"></path></g></svg>
