<svg xmlns="http://www.w3.org/2000/svg" width="88" height="88" fill="none" viewBox="0 0 88 88"
  class="payment-item-image" alt="Cash on delivery">
  <rect width="88" height="88" fill="#EE741F" opacity="0.15" rx="4"></rect>
  <path fill="#EE741F"
    d="M24.434 50.839c2.693 0 3.917-1.714 4.162-3.917h4.65c0 4.406-3.182 8.078-8.812 8.078-6.364 0-9.301-3.917-9.301-9.302v-2.692c0-5.385 2.937-9.302 9.301-9.302 5.386 0 8.568 3.672 8.812 8.078h-4.65c0-1.958-1.469-3.917-4.162-3.917-2.937 0-4.406 1.959-4.406 4.896v3.182c.245 2.937 1.47 4.896 4.406 4.896zM43.528 54.998c-6.12 0-9.546-3.917-9.546-9.302v-2.692c.245-5.385 3.427-9.302 9.546-9.302 6.12 0 9.302 3.917 9.302 9.302v2.692c.245 5.385-2.937 9.302-9.302 9.302zm0-17.135c-2.937 0-4.406 1.959-4.406 4.896v3.182c0 2.937 1.469 4.896 4.406 4.896 2.938 0 4.406-1.959 4.406-4.896V42.76c0-2.937-1.468-4.896-4.406-4.896zM63.6 34.191c5.63 0 8.566 3.427 8.566 8.078v4.161c0 4.651-2.937 8.078-8.567 8.078h-9.056V34.191h9.056zm3.671 8.078c0-2.692-1.469-3.916-4.406-3.916h-2.937v12.239h2.937c2.937 0 4.406-1.47 4.406-3.917V42.27z"></path>
</svg>
