<svg width="24" height="24" viewBox="0 0 24 24" fill="none" xmlns="http://www.w3.org/2000/svg">
  <g clip-path="url(#clip0_132_2676)">
    <path
      d="M10.8244 1.85414C11.5254 1.34483 12.4746 1.34483 13.1756 1.85414L15.1138 3.2624C15.3692 3.44793 15.6648 3.57039 15.9766 3.61977L18.3429 3.99453C19.1987 4.13006 19.8699 4.80126 20.0055 5.65706L20.3802 8.02341C20.4296 8.33516 20.5521 8.6308 20.7376 8.88616L22.1459 10.8244C22.6552 11.5254 22.6552 12.4746 22.1459 13.1756L20.7376 15.1138C20.5521 15.3692 20.4296 15.6648 20.3802 15.9766L20.0055 18.3429C19.8699 19.1987 19.1987 19.8699 18.3429 20.0055L15.9766 20.3802C15.6648 20.4296 15.3692 20.5521 15.1138 20.7376L13.1756 22.1459C12.4746 22.6552 11.5254 22.6552 10.8244 22.1459L8.88616 20.7376C8.6308 20.5521 8.33516 20.4296 8.02341 20.3802L5.65706 20.0055C4.80126 19.8699 4.13006 19.1987 3.99453 18.3429L3.61977 15.9766C3.57039 15.6648 3.44793 15.3692 3.2624 15.1138L1.85414 13.1756C1.34483 12.4746 1.34483 11.5254 1.85414 10.8244L3.2624 8.88616C3.44793 8.6308 3.57039 8.33516 3.61977 8.02341L3.99453 5.65706C4.13006 4.80126 4.80126 4.13006 5.65706 3.99453L8.02341 3.61977C8.33516 3.57039 8.6308 3.44793 8.88616 3.2624L10.8244 1.85414Z"
      stroke="currentColor" stroke-width="1" />
    <path d="M13.8115 5.23848L10.1881 18.7614" stroke="currentColor" stroke-width="1" />
    <circle cx="9" cy="8" r="2" fill="currentColor" />
    <circle cx="15" cy="16" r="2" fill="currentColor" />
  </g>
  <defs>
    <clipPath id="clip0_132_2676">
      <rect width="24" height="24" fill="currentColor" />
    </clipPath>
  </defs>
</svg>
