<svg width="24" height="24" viewBox="0 0 24 24" fill="none" xmlns="http://www.w3.org/2000/svg">
  <path d="M8 4H4V21H20V4H16" stroke="#5F6F94" stroke-width="2" />
  <circle cx="8" cy="9" r="1" fill="#5F6F94" />
  <circle cx="8" cy="13" r="1" fill="#5F6F94" />
  <circle cx="8" cy="17" r="1" fill="#5F6F94" />
  <rect x="11" y="8" width="6" height="2" fill="#5F6F94" />
  <rect x="11" y="12" width="6" height="2" fill="#5F6F94" />
  <rect x="11" y="16" width="6" height="2" fill="#5F6F94" />
  <path
    d="M8 3.5C8 2.67157 8.67157 2 9.5 2H14.5C15.3284 2 16 2.67157 16 3.5V3.5C16 4.32843 15.3284 5 14.5 5H9.5C8.67157 5 8 4.32843 8 3.5V3.5Z"
    stroke="#5F6F94" stroke-width="2" />
</svg>
