<svg xmlns="http://www.w3.org/2000/svg" width="88" height="88" fill="none" viewBox="0 0 88 88"
  class="payment-item-image" alt="Razorpay">
  <rect width="88" height="88" fill="#072654" rx="4"></rect>
  <path fill="#fff" fill-rule="evenodd"
    d="M25.162 41.666c-.114.418-.334.724-.66.92-.328.195-.786.293-1.378.293h-1.88l.66-2.425h1.88c.59 0 .997.098 1.217.293.22.196.274.502.16.92zm1.946-.052c.239-.877.14-1.551-.297-2.02-.437-.47-1.203-.704-2.297-.704h-4.195l-2.525 9.282h2.038l1.018-3.742h1.336c.3 0 .536.048.709.144.173.095.274.265.305.508l.364 3.09h2.184l-.355-2.881c-.072-.643-.37-1.022-.896-1.134.67-.191 1.23-.51 1.682-.952.451-.443.761-.974.929-1.59zM32.062 44.848c-.17.626-.432 1.104-.787 1.434-.355.33-.779.496-1.273.496-.503 0-.845-.163-1.025-.49-.18-.325-.187-.796-.019-1.414.168-.617.436-1.099.804-1.447.368-.347.799-.521 1.293-.521.494 0 .828.167 1.002.502.173.334.175.814.005 1.44zm.894-3.285l-.256.939c-.11-.34-.324-.608-.64-.808-.316-.2-.708-.3-1.176-.3-.573 0-1.125.145-1.654.436-.529.292-.992.702-1.387 1.232-.396.53-.686 1.135-.87 1.812-.185.678-.222 1.276-.11 1.793.11.517.35.915.72 1.193s.847.417 1.429.417c.467 0 .913-.096 1.335-.287.423-.19.782-.456 1.077-.795l-.266.978h1.971l1.799-6.61h-1.972zM42.017 41.563h-5.73l-.4 1.473h3.334l-4.41 3.754-.376 1.382h5.916l.401-1.473H37.18l4.477-3.807.361-1.33zM47.063 44.833c-.177.652-.44 1.14-.788 1.46-.347.322-.768.483-1.262.483-1.033 0-1.372-.647-1.02-1.943.175-.643.439-1.127.792-1.453.353-.326.781-.49 1.284-.49.494 0 .827.164.999.49.172.326.17.81-.005 1.453zm1.154-3.024c-.454-.278-1.034-.417-1.74-.417-.714 0-1.377.139-1.986.417-.61.278-1.129.678-1.557 1.2-.428.52-.737 1.129-.927 1.824-.189.696-.211 1.304-.066 1.825.145.522.446.922.905 1.2.458.278 1.044.417 1.759.417.706 0 1.361-.139 1.967-.417.604-.278 1.12-.678 1.55-1.2.428-.521.737-1.13.926-1.825.19-.695.211-1.303.066-1.825-.145-.521-.444-.921-.897-1.2zM68.84 44.848c-.17.626-.432 1.104-.786 1.434-.355.33-.78.496-1.274.496-.502 0-.844-.163-1.024-.49-.181-.325-.187-.796-.02-1.414.168-.617.436-1.099.804-1.447.368-.347.8-.521 1.294-.521.493 0 .828.167 1.001.502.174.334.176.814.006 1.44zm.894-3.285l-.255.939c-.11-.34-.324-.608-.64-.808-.317-.2-.709-.3-1.176-.3-.574 0-1.125.145-1.654.436-.53.292-.992.702-1.388 1.232-.395.53-.685 1.135-.87 1.812-.184.678-.22 1.276-.11 1.793.11.517.35.915.721 1.193.37.278.846.417 1.428.417.468 0 .913-.096 1.336-.287.422-.19.781-.456 1.076-.795l-.266.978h1.972l1.798-6.61h-1.972zM55.247 43.336l.502-1.8c-.17-.086-.397-.13-.679-.13-.45 0-.883.111-1.301.333-.359.19-.664.457-.922.792l.261-.97-.57.002h-1.401l-1.812 6.61h2l.939-3.455c.137-.504.383-.898.738-1.18.354-.282.796-.424 1.326-.424.326 0 .632.074.919.222zM60.812 44.874c-.168.617-.43 1.089-.782 1.415-.354.326-.777.489-1.271.489-.495 0-.831-.166-1.01-.496-.18-.33-.184-.808-.014-1.434.17-.626.435-1.106.795-1.44.36-.335.788-.502 1.282-.502.485 0 .815.174.99.521.174.348.177.83.01 1.447zm1.397-3.044c-.371-.291-.844-.436-1.417-.436-.503 0-.982.113-1.435.338-.455.227-.823.535-1.106.926l.007-.043.335-1.053h-1.951l-.497 1.829-.016.062-2.05 7.535h1.999l1.032-3.793c.101.339.312.604.63.795.319.191.712.287 1.18.287.582 0 1.136-.139 1.662-.417.525-.278.982-.676 1.37-1.193.387-.517.674-1.115.858-1.793.184-.678.223-1.282.116-1.812s-.347-.94-.717-1.232zM79.983 41.562l.001-.002h-1.21l-.109.002h-.628l-.321.441c-.026.033-.052.067-.08.106l-.034.05-2.554 3.504-.53-4.102h-2.091l1.06 6.233-2.34 3.192H73.231l.567-.79c.016-.024.03-.044.049-.069l.661-.924.02-.026 2.959-4.133 2.494-3.479.003-.003h-.001z"
    clip-rule="evenodd"></path>
  <path fill="#3395FF" fill-rule="evenodd"
    d="M12.656 39.953l-.598 2.169 3.424-2.181-2.24 8.229 2.274.002 3.308-12.154-6.168 3.935z"
    clip-rule="evenodd"></path>
  <path fill="#fff" fill-rule="evenodd"
    d="M8.972 44.712l-.941 3.46h4.66l1.907-7.038c-.002 0-5.626 3.578-5.626 3.578z"
    clip-rule="evenodd"></path>
</svg>
